<svg width="128" height="128" viewBox="0 0 128 128" fill="none" xmlns="http://www.w3.org/2000/svg">
<rect width="128" height="128"/>
<path d="M48.7413 122C47.8243 106.507 46.9071 97.5692 36.3537 86.6865C35.6904 86.0025 34.989 85.3108 34.2471 84.6093C26.5156 70.333 27.5911 61.0739 27 45.1413C35.6971 36.1063 40.4199 43.1861 48.7413 63.8367C47.6444 27.3004 46.0476 4.395 63.2354 12.9438M63.2354 12.9438V52.4118M63.2354 12.9438C70.0326 4.74059 73.8851 3.70016 75.659 10.3854M75.659 53.4504C77.1344 31.172 77.4138 16.9986 75.659 10.3854M75.659 10.3854C88.9598 5.00242 89.7113 20.5694 88.0826 56.5662M88.0826 16.0596C99.7577 20.1439 101.541 56.5662 95.9347 81.4934C90.1532 96.0342 90.4372 105.783 91.1885 119.923" stroke="black" stroke-width="4"/>
</svg>
