<svg width="128" height="128" viewBox="0 0 128 128" fill="none" xmlns="http://www.w3.org/2000/svg">
<rect width="128" height="128"/>
<path d="M48.8611 122L48.8611 87.5C35.6227 76.8894 20.795 62.4597 21.9176 54.7984C23.0403 47.1372 18.5497 27.2419 23.0403 22.8871C27.5308 18.5323 29.1437 20.4054 32.0215 26.1935M32.0215 26.1935C26.5407 44.5416 25.8949 48.1382 43.2479 57.5283C47.0784 56.4396 47.5032 45.3709 43.2479 35.9919M32.0215 26.1935C36.0213 16.716 41.2529 15.859 48.8611 20.6177M43.2479 35.9919C43.0982 35.6353 43.4067 36.3613 43.2479 35.9919ZM43.2479 35.9919C46.7241 42.9108 49.5077 47.3807 54.4742 52.3225M69.0686 38.1693C60.8617 30.2051 54.2625 23.9962 48.8611 20.6177M48.8611 20.6177C50.4956 12.1251 54.3867 10.9803 62.3327 17.0083M84.7856 39.258C75.0405 28.5497 67.7457 21.1147 62.3327 17.0083M62.3327 17.0083C66.7002 11.4459 70.7442 9.48393 79.1723 16.5466M99.3799 39.258C90.5204 27.8837 84.0977 20.6741 79.1723 16.5466M79.1723 16.5466C83.5189 4.48691 109.484 32.7258 112.852 38.1693C116.22 43.6128 106.005 69.1571 88.1535 92V122" stroke="black" stroke-width="4"/>
</svg>
