<svg width="128" height="128" viewBox="0 0 128 128" fill="none" xmlns="http://www.w3.org/2000/svg">
<rect width="128" height="128"/>
<path d="M68.2132 47.946L107.957 36.0377C113.51 35.2251 117.142 37.8901 111.904 45.7247L74.1518 65.39L119.847 72.868C126.144 77.419 125.292 79.7051 119.915 83.551L88.8373 83.7493M68.2132 47.946C61.4871 37.0784 57.6101 35.3877 50.6452 34.4611C43.6717 32.6906 37.2 36.7515 24.4979 46.2826L5.07436 46.4066M68.2132 47.946C67.6786 59.4014 66.9917 65.3147 61.5575 70.3265C54.0977 70.2209 52.7606 65.9445 52.7178 54.8434L46.8783 52.9383C46.6887 62.813 51.5233 71.693 39.2391 73.3826M88.8373 83.7493L56.7575 79.098C51.5676 78.4399 49.4587 78.774 50.9614 83.9911M88.8373 83.7493C88.439 92.2801 86.7833 95.7 79.2123 97.4078M50.9614 83.9911C60.0171 92.463 66.1105 95.5547 79.2123 97.4078M50.9614 83.9911C43.057 90.3456 43.0873 94.5152 53.0118 100.906M79.2123 97.4078C78.1992 106.414 73.3246 107.55 58.861 104.336C56.6258 103.116 54.6792 101.98 53.0118 100.906M53.0118 100.906L37.473 101.005C30.6393 101.305 27.3611 97.7314 21.8571 89.0329L5.34714 89.1383" stroke="black" stroke-width="4"/>
</svg>
